<svg width="117" height="111" viewBox="0 0 117 111" fill="none" xmlns="http://www.w3.org/2000/svg">
<path d="M92.0505 21.2227C92.0505 13.2712 86.8472 0.65625 72.8849 0.65625C67.1483 0.65625 62.3227 3.36073 58.4999 8.70663C54.677 3.36073 49.8513 0.65625 44.1148 0.65625C30.1523 0.65625 24.9492 13.2712 24.9492 21.2227C24.9492 34.932 35.6488 43.5075 50.2658 56.0066C52.4136 57.843 54.6345 59.7422 57.0024 61.7965C57.432 62.1692 57.9658 62.3555 58.4999 62.3555C59.0339 62.3555 59.5677 62.1692 59.9973 61.7965C62.3652 59.7422 64.5862 57.843 66.734 56.0066C82.0368 42.9211 92.0505 34.6422 92.0505 21.2227ZM58.4999 57.0484C56.6738 55.4726 54.9323 53.9833 53.236 52.5327C37.9433 39.4564 29.5195 32.2531 29.5195 21.2227C29.5195 13.7404 34.4146 5.22656 44.1148 5.22656C49.1771 5.22656 53.2267 8.13328 56.4949 14.1126C56.8955 14.8457 57.6644 15.3018 58.4999 15.3018C59.3353 15.3018 60.1043 14.8457 60.5049 14.1126C63.7731 8.13328 67.8226 5.22656 72.8849 5.22656C82.4497 5.22656 87.4802 13.614 87.4802 21.2227C87.4802 32.2531 79.0565 39.4564 63.7637 52.533C62.0675 53.9833 60.326 55.4726 58.4999 57.0484Z" fill="#004B62"/>
<path d="M16.4207 90.2604L27.4219 95.7601V108.059C27.4219 109.32 28.4452 110.344 29.707 110.344H53.9297C55.1916 110.344 56.2148 109.32 56.2148 108.059V78.2259C56.2148 71.2246 50.9629 65.4187 44.0155 64.7222L43.8286 64.7021C39.8074 64.299 32.6873 61.5486 29.8759 58.7374L24.7439 53.6074C23.017 51.8808 20.722 50.9297 18.2812 50.9297V32.6484C18.2812 27.6083 14.1808 23.5078 9.14062 23.5078C4.10048 23.5078 0 27.6083 0 32.6484V63.69C0 74.9362 6.35228 85.2251 16.4207 90.2604ZM4.57031 32.6484C4.57031 30.1284 6.62055 28.0781 9.14062 28.0781C11.6607 28.0781 13.7109 30.1284 13.7109 32.6484V52.1548C10.924 53.7663 9.14062 56.7708 9.14062 60.0703C9.14062 62.5111 10.0917 64.8061 11.8186 66.5327L23.5209 78.2373C24.413 79.1299 25.86 79.1299 26.7526 78.2375C27.6449 77.3454 27.6451 75.8984 26.7528 75.0059L15.0505 63.3011C14.1865 62.4375 13.7109 61.2901 13.7109 60.0703C13.7109 58.1362 14.9351 56.404 16.7575 55.7603C16.7577 55.7603 16.7582 55.76 16.7584 55.7598C16.7589 55.7596 16.7596 55.7596 16.76 55.7594C18.3363 55.2 20.206 55.5331 21.5125 56.8398L26.6445 61.9697C31.9428 67.2681 43.5187 69.2617 43.5418 69.2681C48.161 69.731 51.6443 73.5822 51.6443 78.2259V105.773H31.992V94.3477C31.992 93.482 31.5027 92.6907 30.7287 92.3038L18.4645 86.1727C9.8945 81.8865 4.57031 73.2717 4.57031 63.69V32.6484Z" fill="#004B62"/>
<path d="M104.889 87.0352C106.151 87.0352 107.174 86.0121 107.174 84.75C107.174 83.4879 106.151 82.4648 104.889 82.4648C103.627 82.4648 102.604 83.4879 102.604 84.75C102.604 86.0121 103.627 87.0352 104.889 87.0352Z" fill="#004B62"/>
<path d="M107.859 23.5078C102.819 23.5078 98.7188 27.6083 98.7188 32.6484V50.9297C96.278 50.9297 93.983 51.8808 92.2566 53.6074L87.1236 58.7378C84.3127 61.5488 77.1926 64.2992 73.1536 64.7039L73.0023 64.7204C66.0371 65.4187 60.7852 71.2248 60.7852 78.2259V108.059C60.7852 109.32 61.8084 110.344 63.0703 110.344H87.293C88.5548 110.344 89.5781 109.32 89.5781 108.059V95.7601L97.0574 92.0211C98.1861 91.4567 98.6438 90.0842 98.0796 88.9554C97.5152 87.8267 96.1425 87.3686 95.0138 87.9332L86.271 92.3038C85.4971 92.6907 85.0078 93.482 85.0078 94.3477V105.773H65.3555V78.2259C65.3555 73.5822 68.8387 69.731 73.4758 69.2662L73.627 69.2498C78.5838 68.7528 86.7909 65.5339 90.3548 61.97L95.4878 56.8396C96.7978 55.529 98.6712 55.2029 100.24 55.7594C100.24 55.7596 100.241 55.7596 100.241 55.7598C100.242 55.7598 100.242 55.7601 100.242 55.7603C102.065 56.404 103.289 58.1362 103.289 60.0703C103.289 61.2901 102.814 62.4375 101.95 63.3015L90.2474 75.0061C89.3551 75.8984 89.3553 77.3454 90.2477 78.2378C91.1396 79.1301 92.587 79.1301 93.4793 78.2375L105.182 66.5332C106.908 64.8061 107.859 62.5111 107.859 60.0703C107.859 56.7708 106.076 53.7663 103.289 52.1548V32.6484C103.289 30.1284 105.339 28.0781 107.859 28.0781C110.379 28.0781 112.43 30.1284 112.43 32.6484V63.69C112.43 67.8709 111.375 72.0217 109.378 75.6935C108.775 76.8025 109.185 78.1898 110.294 78.7926C111.403 79.3954 112.791 78.9857 113.394 77.8765C115.753 73.5367 117 68.6312 117 63.69V32.6484C117 27.6083 112.9 23.5078 107.859 23.5078Z" fill="#004B62"/>
</svg>
