<svg width="117" height="117" viewBox="0 0 117 117" fill="none" xmlns="http://www.w3.org/2000/svg">
<path d="M114.715 69.9258H112.29C111.919 67.5506 110.814 65.3614 109.083 63.6327L105.297 59.8448C104.197 58.7466 103.519 57.3396 103.339 55.8184C105.971 54.8767 107.859 52.3589 107.859 49.4074C107.859 47.6405 107.201 46.0274 106.121 44.8051C107.201 43.5996 107.859 42.0089 107.859 40.2667C107.859 38.4999 107.201 36.8868 106.121 35.6644C107.201 34.459 107.859 32.8683 107.859 31.1261C107.859 29.3592 107.201 27.7461 106.12 26.5238C107.201 25.3184 107.859 23.7277 107.859 21.9855C107.859 18.9732 105.947 16.4054 103.289 15.465V2.28516C103.289 1.02329 102.266 0 101.004 0H72.2109C70.9491 0 69.9258 1.02329 69.9258 2.28516V4.68366C67.4944 5.03146 65.1754 6.18272 63.3946 7.96354L59.6081 11.75C58.5505 12.8076 57.2089 13.4769 55.7562 13.6872C54.7599 11.0407 52.2439 9.14062 49.3594 9.14062C47.6227 9.14062 46.0123 9.8456 44.7891 10.9859C43.5658 9.8456 41.9555 9.14062 40.2188 9.14062C38.482 9.14062 36.8717 9.8456 35.6484 10.9859C34.4252 9.8456 32.8148 9.14062 31.0781 9.14062C29.3414 9.14062 27.7311 9.8456 26.5078 10.9859C25.2846 9.8456 23.6742 9.14062 21.9375 9.14062C19.0587 9.14062 16.529 11.0524 15.5331 13.7109H2.28516C1.02329 13.7109 0 14.7342 0 15.9961V44.7891C0 46.0509 1.02329 47.0742 2.28516 47.0742H4.64709C4.93731 49.6322 6.07143 51.9992 7.91715 53.8426L11.703 57.6305C12.6918 58.6179 13.3398 59.8551 13.5917 61.2004C10.8956 62.1752 8.91211 64.7529 8.91211 67.6886C8.91211 69.4429 9.60177 71.0444 10.7322 72.2525C9.60703 73.4813 8.91211 75.0923 8.91211 76.8292C8.91211 78.5835 9.60177 80.185 10.7322 81.3932C9.60703 82.6219 8.91211 84.2329 8.91211 85.9699C8.91211 87.7242 9.60177 89.3254 10.7322 90.5338C9.60703 91.7623 8.91211 93.3735 8.91211 95.1105C8.91211 98.1079 10.9246 100.659 13.7109 101.565V114.715C13.7109 115.977 14.7342 117 15.9961 117H44.7891C46.0509 117 47.0742 115.977 47.0742 114.715V112.368C49.526 112.027 51.8456 110.89 53.6054 109.13L57.3919 105.344C58.349 104.387 59.5397 103.749 60.8359 103.481C61.2426 106.875 64.1382 109.516 67.6406 109.516C69.3952 109.516 70.9971 108.853 72.2109 107.765C73.4248 108.853 75.0267 109.516 76.7812 109.516C78.5358 109.516 80.1377 108.853 81.3516 107.765C82.5654 108.853 84.1673 109.516 85.9219 109.516C87.6764 109.516 89.2783 108.853 90.4922 107.765C91.7061 108.853 93.308 109.516 95.0625 109.516C98.1413 109.516 100.752 107.469 101.615 104.66H114.715C115.977 104.66 117 103.637 117 102.375V97.5762C117 96.3143 115.977 95.291 114.715 95.291C113.453 95.291 112.43 96.3143 112.43 97.5762V100.09H101.918V74.4778C104.286 74.4851 110.632 74.5121 112.43 74.4778V77.0098C112.43 78.2716 113.453 79.2949 114.715 79.2949C115.977 79.2949 117 78.2716 117 77.0098V72.2109C117 70.9491 115.977 69.9258 114.715 69.9258ZM74.4961 4.57031H98.7188V15.082H74.4961V4.57031ZM62.8397 14.9819L66.6262 11.1954C67.5488 10.2729 68.7021 9.63011 69.9256 9.33121V17.3672C69.9256 18.6291 70.9488 19.6523 72.2107 19.6523H101.052C102.285 19.6523 103.289 20.6989 103.289 21.9855C103.289 23.2398 102.306 24.2227 101.052 24.2227H91.911C90.6492 24.2227 89.6259 25.2459 89.6259 26.5078C89.6259 27.7697 90.6492 28.793 91.911 28.793H101.052C102.285 28.793 103.289 29.8396 103.289 31.1261C103.289 32.3804 102.306 33.3633 101.052 33.3633H91.911C90.6492 33.3633 89.6259 34.3866 89.6259 35.6484C89.6259 36.9103 90.6492 37.9336 91.911 37.9336H101.052C102.285 37.9336 103.289 38.9802 103.289 40.2667C103.289 41.5211 102.306 42.5039 101.052 42.5039H91.911C90.6492 42.5039 89.6259 43.5272 89.6259 44.7891C89.6259 46.0509 90.6492 47.0742 91.911 47.0742H101.052C102.285 47.0742 103.289 48.1208 103.289 49.4074C103.289 50.6617 102.306 51.6445 101.052 51.6445H73.3672C70.2215 51.6445 67.3374 50.3946 65.2874 48.3445C64.669 47.8564 61.9373 44.141 56.2151 42.9123V18.2349C58.715 17.9188 61.0281 16.7936 62.8397 14.9819ZM61.2959 69.6143C57.4004 68.6155 55.628 66.078 54.9438 65.5168C52.8671 63.4421 50.2837 61.983 47.5047 61.2758C48.5532 57.5546 50.9764 55.8508 51.5312 55.1813C53.6539 53.0565 55.1205 50.3895 55.7923 47.51C59.6412 48.5308 61.3686 51.0115 62.0552 51.5762C64.1265 53.6475 66.7506 55.0924 69.6077 55.772C68.6433 59.7886 65.9935 61.6489 65.4686 62.2938C63.4432 64.3214 62.0068 66.8637 61.2959 69.6143ZM4.57031 18.2812H15.082V42.5039H4.57031V18.2812ZM11.1484 50.6105C10.1683 49.6315 9.52225 48.4067 9.26585 47.0742H17.3672C18.6291 47.0742 19.6523 46.0509 19.6523 44.7891C19.6523 44.7891 19.6542 16.1136 19.6551 16.088C19.7067 14.7996 20.7522 13.7109 21.9375 13.7109C23.1548 13.7109 24.2227 14.8675 24.2227 16.1858V25.3264C24.2227 26.5883 25.2459 27.6115 26.5078 27.6115C27.7697 27.6115 28.793 26.5883 28.793 25.3264V16.1858C28.793 14.8672 29.8608 13.7109 31.0781 13.7109C32.2954 13.7109 33.3633 14.8675 33.3633 16.1858V25.3264C33.3633 26.5883 34.3866 27.6115 35.6484 27.6115C36.9103 27.6115 37.9336 26.5883 37.9336 25.3264V16.1858C37.9336 14.8672 39.0014 13.7109 40.2188 13.7109C41.4361 13.7109 42.5039 14.8675 42.5039 16.1858V25.3264C42.5039 26.5883 43.5272 27.6115 44.7891 27.6115C46.0509 27.6115 47.0742 26.5883 47.0742 25.3264V16.1858C47.0742 14.8672 48.1421 13.7109 49.3594 13.7109C50.5367 13.7109 51.6029 14.8329 51.6411 16.112C51.6418 16.1369 51.6429 16.162 51.6445 16.1869V43.8704C51.6445 46.8082 50.5038 49.7433 48.3004 51.9489C47.8103 52.5648 44.1949 55.2254 42.9136 60.7852H18.1576C17.8021 58.3741 16.6883 56.1502 14.9342 54.3984L11.1484 50.6105ZM42.5039 112.43H18.2812V101.918H42.5039V112.43ZM54.1603 102.112L50.3738 105.898C49.4672 106.805 48.3132 107.435 47.0744 107.725V99.6328C47.0744 98.3709 46.0512 97.3477 44.7893 97.3477H15.9481C14.6346 97.3477 13.4824 96.3022 13.4824 95.1105C13.4824 93.8893 14.6577 92.7773 15.9481 92.7773H25.1367C26.3986 92.7773 27.4219 91.7541 27.4219 90.4922C27.4219 89.2303 26.3986 88.207 25.1367 88.207H15.9481C14.6346 88.207 13.4824 87.1616 13.4824 85.9699C13.4824 84.7487 14.6577 83.6367 15.9481 83.6367H25.1367C26.3986 83.6367 27.4219 82.6134 27.4219 81.3516C27.4219 80.0897 26.3986 79.0664 25.1367 79.0664H15.9481C14.6346 79.0664 13.4824 78.0209 13.4824 76.8292C13.4824 75.608 14.6577 74.4961 15.9481 74.4961H25.1367C26.3986 74.4961 27.4219 73.4728 27.4219 72.2109C27.4219 70.9491 26.3986 69.9258 25.1367 69.9258H15.9481C14.6346 69.9258 13.4824 68.8803 13.4824 67.6886C13.4824 66.4674 14.6577 65.3555 15.9481 65.3555H43.6328C46.5155 65.3555 49.4725 66.5111 51.7126 68.7494C52.3822 69.2786 55.0496 72.9625 60.7849 74.1901V98.8611C58.284 99.1767 55.971 100.301 54.1603 102.112ZM99.6328 69.9258C98.3709 69.9258 97.3477 70.9491 97.3477 72.2109V102.638C97.3477 103.91 96.3225 104.946 95.0625 104.946C93.8025 104.946 92.7773 103.921 92.7773 102.661V92.1489C92.7773 90.8871 91.7541 89.8638 90.4922 89.8638C89.2303 89.8638 88.207 90.8871 88.207 92.1489V102.661C88.207 103.921 87.1819 104.946 85.9219 104.946C84.6618 104.946 83.6367 103.921 83.6367 102.661V92.1489C83.6367 90.8871 82.6134 89.8638 81.3516 89.8638C80.0897 89.8638 79.0664 90.8871 79.0664 92.1489V102.661C79.0664 103.921 78.0413 104.946 76.7812 104.946C75.5212 104.946 74.4961 103.921 74.4961 102.661V92.1489C74.4961 90.8871 73.4728 89.8638 72.2109 89.8638C70.9491 89.8638 69.9258 90.8871 69.9258 92.1489V102.661C69.9258 103.921 68.9007 104.946 67.6406 104.946C66.3806 104.946 65.3555 103.921 65.3555 102.661V73.6049C65.3555 70.5601 66.5808 67.6475 68.6996 65.5264C69.2128 64.8717 73.0167 62.1217 74.1876 56.2148H98.7839C99.0565 58.8083 100.197 61.2107 102.066 63.0769L105.851 66.8648C106.714 67.7261 107.316 68.7779 107.624 69.9258H99.6328Z" fill="#004B62"/>
<path d="M114.715 89.5781C115.977 89.5781 117 88.555 117 87.293C117 86.0309 115.977 85.0078 114.715 85.0078C113.453 85.0078 112.43 86.0309 112.43 87.293C112.43 88.555 113.453 89.5781 114.715 89.5781Z" fill="#004B62"/>
</svg>
