<svg width="117" height="120" viewBox="0 0 117 120" fill="none" xmlns="http://www.w3.org/2000/svg">
<g clip-path="url(#clip0_0_169)">
<path d="M100.79 45.0101L99.9376 45.0002C88.055 45.0002 77.3641 51.8129 71.9274 62.4812C68.5075 60.8992 64.7992 60 60.9382 60C54.5598 60 48.5614 62.3324 43.8125 66.3948C43.7208 62.1002 43.1754 57.8231 42.6432 54.0235C42.1873 50.7749 41.7499 47.6228 41.7213 44.9981L54.045 45.0002C55.9969 45.0002 57.8344 44.2191 59.215 42.803L68.965 32.8031C71.7516 29.9449 71.7708 25.3606 69.1107 22.423C70.0399 20.9948 70.4825 19.2841 70.3122 17.5373C70.0956 15.2937 68.9222 13.287 67.0916 12.0369L61.1741 7.99165C58.3154 6.03606 54.9853 5.00108 51.5457 5.00108C44.3762 5.00108 37.6374 7.86486 32.5674 13.0648C23.229 22.6422 15.881 33.6089 10.7205 45.6619C4.5032 60.183 1.35157 70.8959 1.35157 77.4997C1.35157 81.2839 1.03257 84.3574 0.401877 86.6378C-0.945428 91.5083 1.17539 96.7036 5.55778 99.2718C23.1127 109.56 43.0789 114.999 63.2974 114.999H66.8227C79.3551 114.999 91.7375 112.938 103.627 108.874L105.334 108.288C112.311 105.905 117 99.2329 117 91.689V62.522C117 53.1081 109.728 45.2517 100.79 45.0101ZM112.125 91.689C112.125 97.0772 108.776 101.843 103.789 103.547L102.082 104.133C90.6948 108.024 78.8312 109.999 66.8224 109.999H63.2972C43.926 109.999 24.7953 104.789 7.97589 94.9311C5.54316 93.5054 4.35787 90.6561 5.09093 88.0024C5.84548 85.2801 6.22641 81.7451 6.22641 77.4995C6.22641 71.6744 9.3232 61.3621 15.1859 47.6735C20.0989 36.1893 27.1067 25.7354 36.0138 16.5999C40.1627 12.3446 45.678 10.0009 51.5455 10.0009C54.0187 10.0009 56.4133 10.7455 58.4699 12.1517L64.3874 16.197C64.9991 16.6144 65.3894 17.2833 65.461 18.0305C65.5348 18.78 65.2777 19.5124 64.761 20.0446L56.9749 28.0304C56.1418 28.8849 54.8731 29.0949 53.821 28.5554C53.026 28.1475 52.4881 27.398 52.3453 26.4973C52.2025 25.5967 52.481 24.7103 53.1094 24.0657L55.3493 21.7684C56.3015 20.7918 56.3015 19.2098 55.3493 18.2334C54.3971 17.2568 52.8547 17.2568 51.9027 18.2334L49.6628 20.5307C47.9133 22.3251 47.1348 24.7935 47.5324 27.3005C47.93 29.8055 49.4272 31.8928 51.6408 33.0281C54.5687 34.5271 58.1033 33.9461 60.4218 31.5656L65.7534 26.0973C66.4122 27.0708 66.3631 28.4016 65.5181 29.2683L55.7682 39.2682C55.3134 39.7346 54.685 40.0006 54.0447 40.0006L42.6633 39.9987C42.8161 39.7393 42.9628 39.4723 43.1619 39.2682C44.1141 38.2916 44.1141 36.7096 43.1619 35.7332C42.2097 34.7566 40.6672 34.7566 39.7152 35.7332C35.7282 39.8225 36.6971 46.7341 37.8181 54.7367C38.399 58.8919 39.0011 63.1888 39.0011 67.5001C39.0011 77.7979 31.4031 79.9902 31.0793 80.078C29.7844 80.4223 28.999 81.7723 29.325 83.1054C29.6011 84.243 30.5937 84.9998 31.6863 84.9998C31.8814 84.9998 32.0813 84.9755 32.279 84.9241C35.1976 84.1763 39.9805 81.3036 42.3847 75.4112C42.4178 75.3658 42.4718 75.3487 42.5026 75.3002C46.5683 68.85 53.4593 65 60.9382 65C66.7605 65 72.2448 67.3144 76.3795 71.5186C77.3365 72.4903 78.8812 72.4854 79.8261 71.5038C80.7735 70.5223 80.7687 68.9403 79.8117 67.9688C78.684 66.822 77.4478 65.8332 76.1695 64.9222C80.7509 55.8202 89.8351 50.0003 99.9374 50.0003L100.659 50.0101C106.981 50.181 112.125 55.7937 112.125 62.522V91.689H112.125Z" fill="#004B62"/>
</g>
<defs>
<clipPath id="clip0_0_169">
<rect width="117" height="120" fill="white"/>
</clipPath>
</defs>
</svg>
