<svg width="40" height="32" viewBox="0 0 40 32" fill="none" xmlns="http://www.w3.org/2000/svg">
<path d="M35.556 8.35553C35.5806 8.68854 35.5806 9.02163 35.5806 9.35465C35.5806 19.512 27.5749 31.2157 12.9427 31.2157C8.4348 31.2157 4.24718 29.9549 0.724609 27.7665C1.3651 27.8378 1.98087 27.8616 2.646 27.8616C6.36556 27.8616 9.78963 26.6485 12.5239 24.5789C9.026 24.5076 6.09464 22.2953 5.08466 19.2504C5.57736 19.3217 6.06999 19.3693 6.58734 19.3693C7.30168 19.3693 8.0161 19.2741 8.68115 19.1077C5.03545 18.394 2.30107 15.3016 2.30107 11.5669V11.4718C3.36026 12.0427 4.59203 12.3995 5.89749 12.447C3.7544 11.0673 2.35036 8.71234 2.35036 6.04808C2.35036 4.62083 2.74442 3.31249 3.43419 2.17066C7.35089 6.83309 13.2383 9.87789 19.8399 10.211C19.7168 9.64007 19.6428 9.04543 19.6428 8.45072C19.6428 4.21642 23.19 0.767212 27.5994 0.767212C29.8903 0.767212 31.9594 1.69494 33.4128 3.19358C35.211 2.86056 36.9353 2.21826 38.4626 1.33813C37.8714 3.12226 36.6151 4.6209 34.9647 5.57235C36.5659 5.40592 38.1178 4.97764 39.5465 4.383C38.4628 5.90536 37.1079 7.26122 35.556 8.35553Z" fill="#004B62"/>
</svg>
