<svg width="62" height="48" viewBox="0 0 62 48" fill="none" xmlns="http://www.w3.org/2000/svg">
<path d="M14.4339 18.8842C14.8202 18.2153 15.7857 18.2153 16.172 18.8842L27.6867 38.8282C28.0729 39.4972 27.5901 40.3335 26.8176 40.3335H3.78827C3.0158 40.3335 2.533 39.4972 2.91924 38.8282L14.4339 18.8842Z" fill="#00828F"/>
<path d="M31.4748 29.2639C31.0885 29.9329 30.1229 29.9329 29.7367 29.2639L18.222 9.31988C17.8358 8.6509 18.3186 7.81467 19.0911 7.81467L42.1204 7.81468C42.8929 7.81468 43.3757 8.6509 42.9895 9.31988L31.4748 29.2639Z" fill="#81C0C5"/>
<path d="M45.0399 18.8842C45.4261 18.2153 46.3917 18.2153 46.7779 18.8842L58.2926 38.8282C58.6789 39.4972 58.1961 40.3335 57.4236 40.3335H34.3942C33.6218 40.3335 33.139 39.4972 33.5252 38.8282L45.0399 18.8842Z" fill="#F9B401"/>
</svg>
