<svg width="36" height="35" viewBox="0 0 36 35" fill="none" xmlns="http://www.w3.org/2000/svg">
<path d="M18.1426 8.41565C13.2437 8.41565 9.29218 12.3054 9.29218 17.1278C9.29218 21.9502 13.2437 25.84 18.1426 25.84C23.0416 25.84 26.9931 21.9502 26.9931 17.1278C26.9931 12.3054 23.0416 8.41565 18.1426 8.41565ZM18.1426 22.7919C14.9768 22.7919 12.3887 20.2518 12.3887 17.1278C12.3887 14.0039 14.9691 11.4638 18.1426 11.4638C21.3162 11.4638 23.8966 14.0039 23.8966 17.1278C23.8966 20.2518 21.3085 22.7919 18.1426 22.7919ZM29.4195 8.05928C29.4195 9.18906 28.4951 10.0914 27.3551 10.0914C26.2074 10.0914 25.2908 9.18148 25.2908 8.05928C25.2908 6.93709 26.2151 6.0272 27.3551 6.0272C28.4951 6.0272 29.4195 6.93709 29.4195 8.05928ZM35.2813 10.1217C35.1503 7.39961 34.5187 4.98841 32.4929 3.00182C30.4748 1.01524 28.0253 0.393479 25.26 0.256996C22.41 0.0977657 13.8676 0.0977657 11.0176 0.256996C8.26001 0.385897 5.81054 1.00765 3.78471 2.99424C1.75889 4.98083 1.13497 7.39203 0.996318 10.1141C0.834561 12.9196 0.834561 21.3285 0.996318 24.134C1.12727 26.856 1.75889 29.2672 3.78471 31.2538C5.81054 33.2404 8.25231 33.8622 11.0176 33.9987C13.8676 34.1579 22.41 34.1579 25.26 33.9987C28.0253 33.8698 30.4748 33.248 32.4929 31.2538C34.511 29.2672 35.1426 26.856 35.2813 24.134C35.443 21.3285 35.443 12.9272 35.2813 10.1217ZM31.5994 27.1442C30.9985 28.6303 29.8354 29.7753 28.318 30.3743C26.0457 31.2614 20.6537 31.0567 18.1426 31.0567C15.6315 31.0567 10.2319 31.2538 7.96731 30.3743C6.45757 29.7828 5.29445 28.6379 4.68594 27.1442C3.78472 24.9074 3.99269 19.5997 3.99269 17.1278C3.99269 14.656 3.79242 9.34071 4.68594 7.11148C5.28675 5.62533 6.44987 4.48039 7.96731 3.88138C10.2396 2.99424 15.6315 3.19897 18.1426 3.19897C20.6537 3.19897 26.0534 3.00182 28.318 3.88138C29.8277 4.47281 30.9908 5.61775 31.5994 7.11148C32.5006 9.34829 32.2926 14.656 32.2926 17.1278C32.2926 19.5997 32.5006 24.9149 31.5994 27.1442Z" fill="#004B62"/>
</svg>
