<svg width="208" height="208" viewBox="0 0 208 208" fill="none" xmlns="http://www.w3.org/2000/svg">
<path fill-rule="evenodd" clip-rule="evenodd" d="M208 104C208 161.438 161.438 208 104 208C46.5881 207.938 0.0620953 161.412 0 104C0 46.5624 46.5624 0 104 0C161.438 0 208 46.5624 208 104ZM140.611 115.472C143.554 114.287 145.539 111.5 145.698 108.331C145.543 105.159 143.556 102.368 140.611 101.181L87.8743 74.8084C85.1588 73.1506 81.7419 73.1604 79.036 74.8338C76.3301 76.5071 74.7949 79.5597 75.0649 82.7297V133.915C74.9066 137.064 76.418 140.064 79.0429 141.81C80.3145 142.592 81.7799 143 83.2723 142.989C84.8752 142.969 86.4513 142.574 87.8743 141.836L140.611 115.472Z" fill="#F9B401"/>
<path d="M153.944 104.057C153.765 107.644 151.517 110.799 148.186 112.141L88.4898 141.984C86.879 142.819 85.095 143.266 83.2805 143.289C81.5913 143.301 79.9324 142.839 78.4931 141.954C75.5218 139.977 73.8109 136.582 73.9902 133.017V75.0774C73.6845 71.4891 75.4223 68.0337 78.4853 66.1395C81.5482 64.2454 85.416 64.2343 88.4898 66.1108L148.186 95.9636C151.52 97.3068 153.768 100.467 153.944 104.057Z" fill="white"/>
</svg>
